<?xml version="1.0" encoding="UTF-8" standalone="no"?>
<svg
   xmlns:dc="http://purl.org/dc/elements/1.1/"
   xmlns:cc="http://creativecommons.org/ns#"
   xmlns:rdf="http://www.w3.org/1999/02/22-rdf-syntax-ns#"
   xmlns:svg="http://www.w3.org/2000/svg"
   xmlns="http://www.w3.org/2000/svg"
   xmlns:sodipodi="http://sodipodi.sourceforge.net/DTD/sodipodi-0.dtd"
   xmlns:inkscape="http://www.inkscape.org/namespaces/inkscape"
   width="48"
   height="48"
   viewBox="0 0 12.7 12.7"
   version="1.1"
   id="svg8"
   inkscape:version="1.0.2 (e86c870879, 2021-01-15, custom)"
   sodipodi:docname="icon.svg">
  <defs
     id="defs2" />
  <sodipodi:namedview
     id="base"
     pagecolor="#ffffff"
     bordercolor="#666666"
     borderopacity="1.0"
     inkscape:pageopacity="0.0"
     inkscape:pageshadow="2"
     inkscape:zoom="5.6"
     inkscape:cx="23.456306"
     inkscape:cy="24.407192"
     inkscape:document-units="mm"
     inkscape:current-layer="layer1"
     inkscape:document-rotation="0"
     showgrid="false"
     units="px"
     inkscape:window-width="1123"
     inkscape:window-height="766"
     inkscape:window-x="1844"
     inkscape:window-y="329"
     inkscape:window-maximized="0" />
  <metadata
     id="metadata5">
    <rdf:RDF>
      <cc:Work
         rdf:about="">
        <dc:format>image/svg+xml</dc:format>
        <dc:type
           rdf:resource="http://purl.org/dc/dcmitype/StillImage" />
        <dc:title></dc:title>
      </cc:Work>
    </rdf:RDF>
  </metadata>
  <g
     inkscape:label="Layer 1"
     inkscape:groupmode="layer"
     id="layer1">
    <path
       id="path40"
       style="stroke-width:0.596813;fill:#000000;"
       d="m 6.3515501,0.34305767 c -0.7758589,0 -1.4324394,0.500904 -1.6831014,1.19320883 H 2.1735107 A 1.1936293,1.1936293 0 0 0 0.97978513,2.729992 v 8.355562 A 1.1936293,1.1936293 0 0 0 2.1735107,12.27928 h 8.3555623 a 1.1936293,1.1936293 0 0 0 1.193725,-1.193726 V 2.729992 A 1.1936293,1.1936293 0 0 0 10.529073,1.5362665 H 8.0341347 C 7.7834727,0.84396167 7.1274092,0.34305768 6.3515501,0.34305767 Z m -0.00206,1.19320883 a 0.59681464,0.59681464 0 0 1 0.00206,0 0.59681464,0.59681464 0 0 1 0.59635,0.5968627 A 0.59681464,0.59681464 0 0 1 6.3515501,2.729992 0.59681464,0.59681464 0 0 1 5.7546874,2.1331292 0.59681464,0.59681464 0 0 1 6.3494832,1.5362665 Z m 2.0381185,1.6221231 c 0.5603801,0 1.1203405,0.2134187 1.5471925,0.640271 0.8537049,0.8537046 0.8537049,2.241714 0,3.0954183 L 9.2826405,7.5462353 c 0.0043,-0.3589935 -0.0526,-0.7178849 -0.175183,-1.0593668 L 9.3131297,6.2765454 c 0.5165996,-0.5122222 0.5165996,-1.3439947 0,-1.8562174 -0.5122219,-0.5166005 -1.3439949,-0.5166005 -1.8562174,0 L 5.9117869,5.9659701 c -0.5166005,0.5122225 -0.5166005,1.3439947 0,1.8562174 0.1794968,0.1707409 0.1794968,0.4509267 0,0.6216677 -0.1707409,0.1707409 -0.4509264,0.1707409 -0.6216674,0 -0.8537045,-0.8537046 -0.8537045,-2.2417143 0,-3.0954184 L 6.8398923,3.7986606 C 7.2667446,3.3718083 7.8272213,3.1583896 8.3876016,3.1583896 Z M 7.4569123,5.8378125 c 0.1127326,0 0.2257216,0.042787 0.311092,0.1281576 0.8537038,0.8537043 0.8537038,2.2411975 0,3.0949016 L 6.2182281,10.611165 c -0.8537043,0.853704 -2.2417137,0.853704 -3.0954183,0 -0.8537043,-0.8537037 -0.8537043,-2.2417144 0,-3.0954187 L 3.7754832,6.8635897 c -0.00438,0.3589938 0.052084,0.7176413 0.1746665,1.0635011 l -0.2056723,0.205672 c -0.5166005,0.5122228 -0.5166005,1.3445122 0,1.8567345 0.5122228,0.5166007 1.3439947,0.5166007 1.8562175,0 L 7.146337,8.4438552 c 0.5166002,-0.5122228 0.5166002,-1.343995 0,-1.8562175 -0.1794971,-0.1707409 -0.1794971,-0.4509267 0,-0.6216676 0.08537,-0.08537 0.1978424,-0.1281576 0.3105753,-0.1281576 z" />
  </g>
</svg>
